<svg height='300px' width='300px' fill="#00FF00" xmlns="http://www.w3.org/2000/svg" xmlns:xlink="http://www.w3.org/1999/xlink" version="1.1" x="0px" y="0px" viewBox="0 0 100 100" enable-background="new 0 0 100 100" xml:space="preserve">
    <path d="M92.5,40H85V22.5c0-0.663-0.263-1.299-0.732-1.768l-15-15C68.799,5.263,68.163,5,67.5,5h-50C16.119,5,15,6.119,15,7.5V40  H7.5C6.119,40,5,41.119,5,42.5v35C5,78.881,6.119,80,7.5,80H15v12.5c0,1.381,1.119,2.5,2.5,2.5h65c1.381,0,2.5-1.119,2.5-2.5V80h7.5  c1.381,0,2.5-1.119,2.5-2.5v-35C95,41.119,93.881,40,92.5,40z M70,13.536L76.464,20H70V13.536z M20,10h45v15h15v15H20V10z M80,90H20  V80h60V90z M90,75H10V45h80V75z"></path>
    <path d="M45,58.536l3.232,3.232c0.976,0.977,2.56,0.977,3.535,0L55,58.536V70h5V52.5c0-1.011-0.609-1.923-1.543-2.31  c-0.933-0.388-2.009-0.174-2.724,0.542L50,56.464l-5.732-5.732c-0.715-0.716-1.791-0.93-2.724-0.542  C40.609,50.577,40,51.489,40,52.5V70h5V58.536z"></path>
</svg>