<svg version="1.2" baseProfile="tiny-ps" xmlns="http://www.w3.org/2000/svg" viewBox="0 0 940 280" width="940" height="280">
	<title>New Project</title>
	<style>
		tspan { white-space:pre }
	</style>
	<path fill="#FFFFFF" aria-label="Manthan"  d="M197.78 112.55L197.78 127.2L157.5 127.2L157.74 144.29Q174.34 150.4 181.67 160.28Q189.23 170.54 189.23 187.99Q189.23 213.14 169.09 231.21Q165.31 234.62 157.5 240.12Q147.85 246.95 145.29 246.95Q142.73 246.95 121.73 225.47Q134.67 224.74 148.71 217.17Q162.01 210.09 171.29 199.83Q181.3 188.85 181.3 176.52Q181.3 164.31 167.75 159.55Q161.16 157.23 154.69 157.48Q115.14 159.06 106.23 203.5L81.2 193.24Q81.2 182.99 89.14 170.29Q92.07 165.65 92.19 165.04Q92.19 159.31 75.71 159.31Q54.59 159.31 42.87 177.86Q37.75 186.04 37.75 194.22Q37.75 211.31 53.49 226.57L76.69 249.03Q55.45 241.7 37.26 227.79Q12.96 209.23 12.96 187.99Q12.96 161.14 40.06 147.95Q51.91 142.22 64.48 142.22Q80.59 142.22 96.71 151.86Q102.81 155.52 103.79 155.77Q113.06 151.74 124.17 147.1Q130.03 144.66 136.01 143.8L136.26 127.2L9.3 127.2L9.3 112.55L197.78 112.55ZM315.46 112.55L315.46 127.2L234.16 127.2L234.16 146.73Q234.64 146.73 235.13 147.22Q235.62 147.71 235.99 147.71Q235.01 147.71 234.89 147.59Q234.89 146.98 253.08 143.68Q259.79 142.46 266.38 142.46Q293.85 142.46 301.66 157.84Q306.91 168.1 306.91 199.22L306.91 246.22Q304.35 245.24 287.5 238.29Q287.5 234.38 285.91 233.28Q279.44 237.07 275.29 239.02Q262.11 245.24 244.65 245.24Q220.61 245.24 207.54 230.11Q201.2 222.78 201.2 213.75Q201.2 203.62 211.21 193.61Q230.62 174.2 259.42 174.2Q276.88 174.2 287.5 182.26L287.5 171.03Q282.13 164.19 277 161.87Q272 159.55 263.21 159.79Q243.56 160.16 227.2 167Q219.87 170.05 212.92 172.49L212.92 163.46Q214.5 162.11 217.55 159.43Q218.04 158.82 218.17 158.7L218.17 127.2L193.14 127.2L193.14 112.55L315.46 112.55ZM287.5 204.47Q287.5 199.1 274.68 194.83Q264.06 191.29 256.98 191.29Q231.23 191.29 215.72 209.84Q209.5 217.29 209.5 222.05Q212.06 230.96 229.64 230.96Q252.34 230.96 271.14 219.61Q287.5 209.72 287.5 204.47ZM444.97 112.55L444.97 127.2L313.75 127.2L313.75 112.55L444.97 112.55ZM418.73 180.79Q418.73 151.49 391.02 151.49Q370.51 151.49 356.71 172.98Q344.51 192.02 344.51 213.51L344.51 249.03L324.49 238.53L324.49 146.73L345.48 146.73L345.48 161.26L356.35 153.08Q370.75 142.22 386.74 142.22Q408.47 142.22 422.75 159.06Q436.18 174.93 436.18 197.03Q436.18 224.74 412.75 250.25L389.19 235.48Q400.17 224.61 407.86 215.46Q418.73 202.52 418.73 180.79ZM551.05 112.55L551.05 127.2L489.28 127.2L489.28 225.47Q489.28 229.62 491.97 233.53Q494.78 237.8 498.8 237.8Q516.99 237.8 516.99 200.2L541.53 214.24Q527.49 245.37 498.07 245.24Q480.98 245.12 471.46 229.62Q467.31 222.91 467.31 216.19L467.31 127.2L441.8 127.2L441.8 112.55L467.31 112.55L467.31 71.54L489.28 86.8L489.28 112.55L551.05 112.55ZM683.5 112.55L683.5 127.2L584.99 127.2L584.99 163.95Q598.29 149.42 609.64 145.27Q615.99 142.95 623.93 142.95Q653.71 142.95 668.48 172.25Q674.95 185.06 674.95 197.51Q674.95 220.22 656.28 238.53Q650.05 244.63 647 246.95L626.98 234.99Q634.55 227.06 644.19 215.46Q655.05 202.4 655.18 182.5Q655.3 170.66 649.81 162.72Q643.58 153.45 632.23 153.69Q621.73 153.94 609.77 161.63Q599.02 168.46 591.94 177.98Q584.25 188.24 584.25 197.76L584.25 246.22L561.43 234.01L561.43 127.2L548 127.2L548 112.55L561.43 112.55Q561.43 76.67 542.75 51.27Q531.52 36.02 522 29.79L546.66 29.55Q567.16 40.78 579.25 78.01Q584.99 95.71 584.99 112.55L683.5 112.55ZM801.42 112.55L801.42 127.2L720.12 127.2L720.12 146.73Q720.61 146.73 721.09 147.22Q721.58 147.71 721.95 147.71Q720.97 147.71 720.85 147.59Q720.85 146.98 739.04 143.68Q745.75 142.46 752.34 142.46Q779.81 142.46 787.62 157.84Q792.87 168.1 792.87 199.22L792.87 246.22Q790.31 245.24 773.46 238.29Q773.46 234.38 771.88 233.28Q765.41 237.07 761.26 239.02Q748.07 245.24 730.62 245.24Q706.57 245.24 693.51 230.11Q687.16 222.78 687.16 213.75Q687.16 203.62 697.17 193.61Q716.58 174.2 745.39 174.2Q762.84 174.2 773.46 182.26L773.46 171.03Q768.09 164.19 762.96 161.87Q757.96 159.55 749.17 159.79Q729.52 160.16 713.16 167Q705.84 170.05 698.88 172.49L698.88 163.46Q700.46 162.11 703.52 159.43Q704 158.82 704.13 158.7L704.13 127.2L679.1 127.2L679.1 112.55L801.42 112.55ZM773.46 204.47Q773.46 199.1 760.65 194.83Q750.03 191.29 742.95 191.29Q717.19 191.29 701.69 209.84Q695.46 217.29 695.46 222.05Q698.02 230.96 715.6 230.96Q738.31 230.96 757.11 219.61Q773.46 209.72 773.46 204.47ZM930.93 112.55L930.93 127.2L799.71 127.2L799.71 112.55L930.93 112.55ZM904.69 180.79Q904.69 151.49 876.98 151.49Q856.47 151.49 842.68 172.98Q830.47 192.02 830.47 213.51L830.47 249.03L810.45 238.53L810.45 146.73L831.45 146.73L831.45 161.26L842.31 153.08Q856.71 142.22 872.71 142.22Q894.43 142.22 908.72 159.06Q922.14 174.93 922.14 197.03Q922.14 224.74 898.71 250.25L875.15 235.48Q886.13 224.61 893.82 215.46Q904.69 202.52 904.69 180.79Z" />
</svg>